<svg width="16" height="17" viewBox="0 0 16 17" fill="none" xmlns="http://www.w3.org/2000/svg">
<path d="M14.0625 0.814941C14.9766 0.814941 15.75 1.58838 15.75 2.50244V14.8774C15.75 15.8267 14.9766 16.5649 14.0625 16.5649H9.21094V11.2212H11.25L11.6367 8.68994H9.21094V7.07275C9.21094 6.36963 9.5625 5.70166 10.6523 5.70166H11.7422V3.55713C11.7422 3.55713 10.7578 3.38135 9.77344 3.38135C7.80469 3.38135 6.50391 4.61182 6.50391 6.7915V8.68994H4.28906V11.2212H6.50391V16.5649H1.6875C0.738281 16.5649 0 15.8267 0 14.8774V2.50244C0 1.58838 0.738281 0.814941 1.6875 0.814941H14.0625Z" fill="white"/>
</svg>
