<svg width="50" height="51" viewBox="0 0 50 51" fill="none" xmlns="http://www.w3.org/2000/svg">
<rect y="0.0400391" width="50" height="50" rx="25" fill="white"/>
<path d="M33.332 17.1689C33.7188 17.2744 34 17.5908 34 17.9775C34 27.0127 26.6875 34.29 17.6875 34.29C17.2656 34.29 16.9492 34.0439 16.8438 33.6572L16 30.001C15.9297 29.6143 16.1055 29.1924 16.4922 29.0166L20.4297 27.3291C20.7812 27.1885 21.168 27.2939 21.4141 27.5752L23.1719 29.7197C25.9141 28.4189 28.1289 26.1689 29.3945 23.4971L27.25 21.7393C26.9688 21.4932 26.8633 21.1064 27.0039 20.7549L28.6914 16.8174C28.8672 16.4307 29.2891 16.2197 29.6758 16.3252L33.332 17.1689Z" fill="#0E0951"/>
</svg>
