<svg width="22" height="21" viewBox="0 0 22 21" fill="none" xmlns="http://www.w3.org/2000/svg">
<g clip-path="url(#clip0_180_345)">
<path d="M11 2.24855C13.9391 2.24855 14.2871 2.26032 15.443 2.3074C16.5172 2.35056 17.0973 2.51533 17.484 2.65265C17.9953 2.83311 18.3648 3.05281 18.7473 3.40198C19.134 3.75507 19.3703 4.08855 19.568 4.55541C19.7184 4.9085 19.8988 5.44206 19.9461 6.41895C19.9977 7.47822 20.0105 7.796 20.0105 10.4756C20.0105 13.1591 19.9977 13.4768 19.9461 14.5322C19.8988 15.513 19.7184 16.0426 19.568 16.3957C19.3703 16.8626 19.1297 17.2 18.7473 17.5492C18.3605 17.9023 17.9953 18.118 17.484 18.2985C17.0973 18.4358 16.5129 18.6006 15.443 18.6437C14.2828 18.6908 13.9348 18.7026 11 18.7026C8.06094 18.7026 7.71289 18.6908 6.55703 18.6437C5.48281 18.6006 4.90273 18.4358 4.51602 18.2985C4.00469 18.118 3.63516 17.8983 3.25273 17.5492C2.86602 17.1961 2.62969 16.8626 2.43203 16.3957C2.28164 16.0426 2.10117 15.5091 2.05391 14.5322C2.00234 13.4729 1.98945 13.1551 1.98945 10.4756C1.98945 7.79208 2.00234 7.4743 2.05391 6.41895C2.10117 5.43814 2.28164 4.9085 2.43203 4.55541C2.62969 4.08855 2.87031 3.75115 3.25273 3.40198C3.63945 3.04889 4.00469 2.83311 4.51602 2.65265C4.90273 2.51533 5.48711 2.35056 6.55703 2.3074C7.71289 2.26032 8.06094 2.24855 11 2.24855ZM11 0.439941C8.01367 0.439941 7.63984 0.451711 6.4668 0.49879C5.29805 0.545869 4.49453 0.718491 3.79844 0.965655C3.07227 1.22459 2.45781 1.56591 1.84766 2.12693C1.2332 2.68403 0.859375 3.24505 0.575781 3.90416C0.305078 4.54364 0.116016 5.27337 0.0644531 6.34048C0.0128906 7.41545 0 7.75677 0 10.4834C0 13.2101 0.0128906 13.5514 0.0644531 14.6224C0.116016 15.6896 0.305078 16.4232 0.575781 17.0588C0.859375 17.7218 1.2332 18.2828 1.84766 18.8399C2.45781 19.397 3.07227 19.7423 3.79414 19.9973C4.49453 20.2444 5.29375 20.417 6.4625 20.4641C7.63555 20.5112 8.00937 20.523 10.9957 20.523C13.982 20.523 14.3559 20.5112 15.5289 20.4641C16.6977 20.417 17.5012 20.2444 18.1973 19.9973C18.9191 19.7423 19.5336 19.397 20.1437 18.8399C20.7539 18.2828 21.132 17.7218 21.4113 17.0627C21.682 16.4232 21.8711 15.6935 21.9227 14.6264C21.9742 13.5553 21.9871 13.214 21.9871 10.4873C21.9871 7.7607 21.9742 7.41937 21.9227 6.34833C21.8711 5.28121 21.682 4.54757 21.4113 3.912C21.1406 3.24505 20.7668 2.68403 20.1523 2.12693C19.5422 1.56983 18.9277 1.22459 18.2059 0.969578C17.5055 0.722414 16.7062 0.549792 15.5375 0.502713C14.3602 0.451711 13.9863 0.439941 11 0.439941Z" fill="white"/>
<path d="M11 5.32422C7.88047 5.32422 5.34961 7.635 5.34961 10.4833C5.34961 13.3315 7.88047 15.6423 11 15.6423C14.1195 15.6423 16.6504 13.3315 16.6504 10.4833C16.6504 7.635 14.1195 5.32422 11 5.32422ZM11 13.8298C8.97617 13.8298 7.33477 12.3311 7.33477 10.4833C7.33477 8.63543 8.97617 7.13675 11 7.13675C13.0238 7.13675 14.6652 8.63543 14.6652 10.4833C14.6652 12.3311 13.0238 13.8298 11 13.8298Z" fill="white"/>
<path d="M18.193 5.12045C18.193 5.7874 17.6 6.32488 16.8738 6.32488C16.1434 6.32488 15.5547 5.78348 15.5547 5.12045C15.5547 4.4535 16.1477 3.91602 16.8738 3.91602C17.6 3.91602 18.193 4.45742 18.193 5.12045Z" fill="white"/>
</g>
<defs>
<clipPath id="clip0_180_345">
<rect width="22" height="20.087" fill="white" transform="translate(0 0.439941)"/>
</clipPath>
</defs>
</svg>
