<svg width="16" height="17" viewBox="0 0 16 17" fill="none" xmlns="http://www.w3.org/2000/svg">
<path d="M3.51562 16.4399H0.246094V5.92822H3.51562V16.4399ZM1.86328 4.52197C0.84375 4.52197 0 3.64307 0 2.58838C0 1.56885 0.84375 0.725098 1.86328 0.725098C2.91797 0.725098 3.76172 1.56885 3.76172 2.58838C3.76172 3.64307 2.91797 4.52197 1.86328 4.52197ZM15.7148 16.4399H12.4805V11.3423C12.4805 10.1118 12.4453 8.56494 10.7578 8.56494C9.07031 8.56494 8.82422 9.86572 8.82422 11.2368V16.4399H5.55469V5.92822H8.68359V7.36963H8.71875C9.17578 6.56104 10.2305 5.68213 11.8125 5.68213C15.1172 5.68213 15.75 7.86182 15.75 10.6743V16.4399H15.7148Z" fill="white"/>
</svg>
