<svg width="23" height="22" viewBox="0 0 23 22" fill="none" xmlns="http://www.w3.org/2000/svg">
<path d="M0 21.4399L1.61031 16.0473C0.616635 14.4688 0.0944998 12.6794 0.0954543 10.8446C0.098318 5.10807 5.19081 0.439941 11.4478 0.439941C14.4842 0.440816 17.3345 1.52494 19.4784 3.49194C21.6214 5.45894 22.8012 8.07344 22.8002 10.8542C22.7974 16.5916 17.7049 21.2597 11.4478 21.2597C9.5483 21.2588 7.67644 20.8222 6.0184 19.9927L0 21.4399ZM6.29712 18.1088C7.89694 18.9794 9.42421 19.5009 11.444 19.5018C16.6444 19.5018 20.8806 15.6221 20.8835 10.8524C20.8854 6.07319 16.6692 2.19869 11.4517 2.19694C6.24749 2.19694 2.01409 6.07669 2.01218 10.8454C2.01122 12.7923 2.63359 14.2501 3.67881 15.7752L2.72522 18.9672L6.29712 18.1088ZM17.1665 13.3278C17.0959 13.2193 16.9069 13.1546 16.6224 13.0242C16.3389 12.8938 14.9443 12.2647 14.6837 12.1781C14.4241 12.0914 14.2351 12.0477 14.0452 12.3084C13.8562 12.5683 13.3121 13.1546 13.1469 13.3278C12.9818 13.5011 12.8157 13.5229 12.5322 13.3926C12.2487 13.2622 11.3342 12.9883 10.2508 12.1019C9.40798 11.4124 8.83812 10.5611 8.67298 10.3003C8.50784 10.0404 8.6558 9.89957 8.79707 9.77007C8.92498 9.65369 9.08057 9.46644 9.2228 9.31419C9.36693 9.16369 9.41371 9.05519 9.50916 8.88107C9.60366 8.70782 9.55689 8.55557 9.4853 8.42519C9.41371 8.29569 8.84671 7.01557 8.61094 6.49494C8.37994 5.98832 8.14607 6.05657 7.97235 6.04869L7.42826 6.03994C7.23926 6.03994 6.93189 6.10469 6.67226 6.36544C6.41262 6.62619 5.67953 7.25444 5.67953 8.53457C5.67953 9.81469 6.69612 11.0511 6.83739 11.2243C6.97962 11.3976 8.83716 14.0243 11.6827 15.1504C12.3594 15.4182 12.8882 15.5783 13.2997 15.6982C13.9793 15.8959 14.5978 15.8679 15.0866 15.8014C15.6316 15.7271 16.7646 15.1723 17.0014 14.5651C17.2381 13.9569 17.2381 13.4363 17.1665 13.3278Z" fill="white"/>
</svg>
